<?xml version="1.0"?>
<svg xmlns="http://www.w3.org/2000/svg" xmlns:xlink="http://www.w3.org/1999/xlink" width="450.714264" height="295">
	<defs>
		<marker id="CustomMarker-01" markerUnits="strokeWidth" markerWidth="15.000001" markerHeight="9" viewBox="-15 -4.5 15 9" orient="auto-start-reverse">
			<path d="M 0 -0 L -10 -3, -8 -0.5, -8 0.5, -10 3 Z" fill="#000000" stroke="#000000" stroke-linejoin="round" />
		</marker>
		<marker id="CustomMarker-02" markerUnits="strokeWidth" markerWidth="15.000001" markerHeight="9" viewBox="-15 -4.5 15 9" orient="auto-start-reverse">
			<path d="M 0 -0 L -10 -3, -8 -0.5, -8 0.5, -10 3 Z" fill="#000000" stroke="#000000" stroke-linejoin="round" />
		</marker>
		<marker id="CustomMarker-03" markerUnits="strokeWidth" markerWidth="15.000001" markerHeight="9" viewBox="-15 -4.5 15 9" orient="auto-start-reverse">
			<path d="M 0 -0 L -10 -3, -8 -0.5, -8 0.5, -10 3 Z" fill="#000000" stroke="#000000" stroke-linejoin="round" />
		</marker>
		<marker id="CustomMarker-04" markerUnits="strokeWidth" markerWidth="15.000001" markerHeight="9" viewBox="-15 -4.5 15 9" orient="auto-start-reverse">
			<path d="M 0 -0 L -10 -3, -8 -0.5, -8 0.5, -10 3 Z" fill="#000000" stroke="#000000" stroke-linejoin="round" />
		</marker>
		<marker id="CustomMarker-05" markerUnits="strokeWidth" markerWidth="15.000001" markerHeight="9" viewBox="-15 -4.5 15 9" orient="auto-start-reverse">
			<path d="M 0 -0 L -10 -3, -8 -0.5, -8 0.5, -10 3 Z" fill="#000000" stroke="#000000" stroke-linejoin="round" />
		</marker>
		<marker id="CustomMarker-06" markerUnits="strokeWidth" markerWidth="15.000001" markerHeight="9" viewBox="-15 -4.5 15 9" orient="auto-start-reverse">
			<path d="M 0 -0 L -10 -3, -8 -0.5, -8 0.5, -10 3 Z" fill="#000000" stroke="#000000" stroke-linejoin="round" />
		</marker>
		<marker id="CustomMarker-07" markerUnits="strokeWidth" markerWidth="15.000001" markerHeight="9" viewBox="-15 -4.5 15 9" orient="auto-start-reverse">
			<path d="M 0 -0 L -10 -3, -8 -0.5, -8 0.5, -10 3 Z" fill="#000000" stroke="#000000" stroke-linejoin="round" />
		</marker>
		<marker id="CustomMarker-08" markerUnits="strokeWidth" markerWidth="15.000001" markerHeight="9" viewBox="-15 -4.5 15 9" orient="auto-start-reverse">
			<path d="M 0 -0 L -10 -3, -8 -0.5, -8 0.5, -10 3 Z" fill="#000000" stroke="#000000" stroke-linejoin="round" />
		</marker>
		<marker id="CustomMarker-09" markerUnits="strokeWidth" markerWidth="15.000001" markerHeight="9" viewBox="-15 -4.5 15 9" orient="auto-start-reverse">
			<path d="M 0 -0 L -10 -3, -8 -0.5, -8 0.5, -10 3 Z" fill="#000000" stroke="#000000" stroke-linejoin="round" />
		</marker>
		<marker id="CustomMarker-10" markerUnits="strokeWidth" markerWidth="15.000001" markerHeight="9" viewBox="-15 -4.5 15 9" orient="auto-start-reverse">
			<path d="M 0 -0 L -10 -3, -8 -0.5, -8 0.5, -10 3 Z" fill="#000000" stroke="#000000" stroke-linejoin="round" />
		</marker>
	</defs>
	<rect x="-69.0807648" y="-42.5112" width="138.16153" height="85.0223999" stroke="none" fill="#FFC159" fill-opacity="0.592156827" transform="matrix(0.714286 0 -0 0.714286 224.735 147.02)" />
	<path d="M -69.0808 -42.5112 L 69.0808 -42.5112, 69.0808 42.5112, -69.0808 42.5112 Z" fill="none" stroke="#000000" stroke-width="1.39999998" stroke-linecap="round" stroke-linejoin="round" transform="matrix(0.714286 0 -0 0.714286 224.735 147.02)" />
	<path d="M 0 0 L -35 0, -35 0, -69.9999 0" fill="none" stroke="#000000" stroke-width="1.39999998" stroke-linecap="round" stroke-linejoin="round" marker-end="url(#CustomMarker-01)" transform="matrix(0.714286 0 0 0.714286 175.391 147.02)" />
	<rect x="-69.0805893" y="-42.5112" width="138.161179" height="85.0223999" stroke="none" fill="#FF896B" fill-opacity="0.596078396" transform="matrix(0.714286 0 -0 0.714286 76.0482 147.02)" />
	<path d="M -69.0806 -42.5112 L 69.0806 -42.5112, 69.0806 42.5112, -69.0806 42.5112 Z" fill="none" stroke="#000000" stroke-width="1.39999998" stroke-linecap="round" stroke-linejoin="round" transform="matrix(0.714286 0 -0 0.714286 76.0482 147.02)" />
	<g transform="matrix(1 0 -0 1 56.6019 128.994)">
		<svg width="198.050125" height="93.06427">
			<defs />
			<polyline points="0.2948 17.9802 38.5977 17.9802" fill="none" stroke="#000000" stroke-width="0.589599967" stroke-linecap="round" stroke-linejoin="round" />
			<path d="M 11.0086 6.8351 C 10.9789 6.9507, 10.9002 7.02492, 10.7715 7.05821 L 10.601 7.05821 C 10.4679 7.05866, 10.3959 6.98894, 10.386 6.84949, 10.4355 6.51887, 10.4629 6.20938, 10.4674 5.92104, 10.4674 5.76315, 10.4625 5.61426, 10.4526 5.47481, 10.413 5.05287, 10.3069 4.67997, 10.1341 4.35609, 9.96139 4.03221, 9.72882 3.77311, 9.43733 3.57878, 9.14585 3.38446, 8.78958 3.28729, 8.36944 3.28684, 7.85574 3.28729, 7.33933 3.41235, 6.82023 3.66155, 6.30158 3.91121, 5.83195 4.24453, 5.41181 4.66152, 4.9224 5.15633, 4.5396 5.70333, 4.26295 6.30295, 3.98631 6.90302, 3.76859 7.51434, 3.61025 8.1378, 3.43751 8.77161, 3.3435 9.38833, 3.32866 9.9875, 3.31876 10.0455, 3.31381 10.0959, 3.31381 10.1386, 3.31381 10.6717, 3.42267 11.1589, 3.63994 11.5997, 3.84776 12.0176, 4.14644 12.3514, 4.5369 12.6006, 4.92735 12.8502, 5.38977 12.9748, 5.92327 12.9744, 6.21026 12.9748, 6.4941 12.9366, 6.7757 12.8597, 7.05729 12.7832, 7.31324 12.6716, 7.5431 12.525, 7.77297 12.3788, 7.97179 12.2061, 8.14003 12.0068, 8.30826 11.808, 8.41937 11.5929, 8.47335 11.3622 L 8.79228 10.0955 C 8.81207 10.0239, 8.82197 9.95421, 8.82197 9.88674, 8.82197 9.81027, 8.80218 9.76483, 8.76259 9.74999, 8.65913 9.70726, 8.47875 9.67982, 8.22145 9.66767, 7.96459 9.65597, 7.70009 9.64968, 7.42795 9.64923, 7.35418 9.64968, 7.29975 9.62809, 7.26511 9.58445, 7.23047 9.55116, 7.21293 9.51518, 7.21293 9.47649, 7.21293 9.44815, 7.21788 9.42161, 7.22777 9.39732 L 7.25746 9.26777 C 7.27276 9.2012, 7.30874 9.14857, 7.36542 9.10988, 7.4221 9.07165, 7.48283 9.0523, 7.5467 9.05185, 8.25383 9.08109, 8.97761 9.09549, 9.71893 9.09504, 10.1935 9.09549, 10.6703 9.08109, 11.1494 9.05185, 11.2187 9.0523, 11.278 9.07615, 11.3275 9.12383, 11.3473 9.16251, 11.3572 9.19625, 11.3572 9.22459, 11.3572 9.25383, 11.3523 9.28037, 11.3424 9.30376 L 11.3127 9.43331 C 11.283 9.58265, 11.1867 9.65462, 11.0234 9.64923, 10.8507 9.64968, 10.7059 9.65462, 10.5898 9.66407, 10.4737 9.67397, 10.3887 9.69781, 10.3343 9.73559, 10.2898 9.75539, 10.2353 9.88719, 10.171 10.1314 L 9.41484 13.0247 C 9.41484 13.0684, 9.38785 13.1165, 9.33342 13.1687, 9.28889 13.2119, 9.22951 13.2335, 9.15529 13.2335, 9.09142 13.2335, 9.04193 13.2096, 9.0073 13.1615, 8.89394 13.0324, 8.79138 12.8947, 8.69961 12.7481, 8.6083 12.6019, 8.54757 12.4854, 8.51788 12.3986, 8.23134 12.7396, 7.8112 13.018, 7.25791 13.2335, 6.70462 13.4494, 6.14818 13.5573, 5.5895 13.5573, 4.90756 13.5573, 4.30119 13.4147, 3.76994 13.1296, 3.23869 12.8444, 2.8073 12.4494, 2.47623 11.9452, 2.13031 11.4036, 1.92744 10.8035, 1.86806 10.1458, 1.84827 9.96861, 1.83837 9.78418, 1.83837 9.59165, 1.83837 9.10763, 1.90045 8.61327, 2.0237 8.10901, 2.21173 7.40413, 2.50997 6.72399, 2.91751 6.06904, 3.32506 5.41409, 3.83516 4.81806, 4.44783 4.28007, 5.02631 3.7911, 5.65292 3.40245, 6.32767 3.11456, 7.00241 2.82667, 7.67805 2.68272, 8.3546 2.68227, 8.89349 2.68272, 9.35457 2.80148, 9.73737 3.03899, 10.1206 3.2765, 10.4036 3.56304, 10.5862 3.89861 L 11.5871 2.78304 C 11.6267 2.71646, 11.6932 2.68272, 11.7872 2.68227 L 11.8462 2.68227 C 11.9649 2.68272, 12.0243 2.7403, 12.0243 2.85501 L 12.0243 2.91259 Z" stroke="none" fill="#000000" />
			<path d="M 25.8587 3.38761 C 25.829 3.53695, 25.7377 3.61117, 25.5843 3.61072, 25.3522 3.61117, 25.1327 3.61612, 24.9248 3.62557, 24.7175 3.63546, 24.5668 3.66065, 24.4728 3.70114, 24.3792 3.74207, 24.305 3.86802, 24.2501 4.07854 L 22.1674 12.1899 C 22.1381 12.296, 22.1233 12.3797, 22.1233 12.4418, 22.1233 12.4998, 22.1381 12.5358, 22.1674 12.5497, 22.2367 12.5934, 22.3716 12.6185, 22.5718 12.6257, 22.772 12.6329, 22.9879 12.6365, 23.22 12.6361, 23.3585 12.6365, 23.4274 12.6941, 23.4274 12.8088, 23.4274 12.8381, 23.4229 12.8691, 23.413 12.9024 L 23.3833 13.0104 C 23.3684 13.0733, 23.3351 13.126, 23.283 13.1687, 23.2312 13.2119, 23.1705 13.2335, 23.1012 13.2335, 22.5138 13.2047, 21.9159 13.1903, 21.3078 13.1903, 20.7005 13.1903, 20.0878 13.2047, 19.4698 13.2335, 19.3416 13.2335, 19.2772 13.1714, 19.2772 13.0463 L 19.2772 12.9888, 19.3065 12.8664 C 19.3461 12.7085, 19.4428 12.6316, 19.5957 12.6361, 19.8278 12.6365, 20.0455 12.6329, 20.248 12.6257, 20.4508 12.6185, 20.6015 12.5934, 20.7 12.5497, 20.7891 12.502, 20.8611 12.3725, 20.9151 12.1611 L 22.9978 4.12173, 17.491 13.0319 C 17.4172 13.1664, 17.3034 13.2335, 17.15 13.2335 L 17.0758 13.2335 C 16.9228 13.2335, 16.8311 13.157, 16.8014 13.0032 L 15.9049 4.2009, 13.9553 11.794 C 13.9261 11.8808, 13.9112 11.9721, 13.9112 12.0675, 13.9112 12.0918, 13.9162 12.1183, 13.9261 12.1467, 13.936 12.2623, 13.9751 12.3536, 14.0444 12.4202, 14.1334 12.507, 14.2522 12.5646, 14.4002 12.5934, 14.5486 12.6221, 14.7164 12.6365, 14.904 12.6361, 15.0425 12.6365, 15.1118 12.6941, 15.1118 12.8088, 15.1118 12.8381, 15.1069 12.8691, 15.097 12.9024 L 15.0673 13.0104 C 15.0524 13.0733, 15.0191 13.126, 14.967 13.1687, 14.9152 13.2119, 14.8523 13.2335, 14.778 13.2335, 14.2841 13.2047, 13.7853 13.1903, 13.281 13.1903, 12.7772 13.1903, 12.2657 13.2047, 11.7466 13.2335, 11.6729 13.2335, 11.6184 13.2119, 11.5838 13.1687, 11.5496 13.1354, 11.5321 13.0994, 11.5321 13.0607, 11.5321 13.0324, 11.537 13.0036, 11.5469 12.9744 L 11.5762 12.8664 C 11.6157 12.7085, 11.7125 12.6316, 11.8654 12.6361, 12.0534 12.6365, 12.2298 12.6221, 12.3953 12.5934, 12.5608 12.5646, 12.7156 12.5047, 12.8586 12.413, 12.9724 12.3415, 13.0651 12.247, 13.1366 12.1291, 13.2086 12.0117, 13.2617 11.8858, 13.2959 11.7508 L 15.2823 4.04976 C 15.312 3.94449, 15.3268 3.86308, 15.3268 3.80505, 15.3268 3.74792, 15.3147 3.71418, 15.2895 3.70429, 15.2207 3.66155, 15.0862 3.63546, 14.886 3.62557, 14.6858 3.61612, 14.4695 3.61117, 14.2373 3.61072, 14.1042 3.61117, 14.0322 3.5464, 14.0223 3.4164 L 14.0223 3.36601, 14.052 3.23646 C 14.1064 3.09297, 14.2027 3.021, 14.3408 3.02055 L 16.7424 3.02055 C 16.9008 3.021, 16.9894 3.09792, 17.0092 3.25086 L 17.854 11.4773, 22.9532 3.22207 C 23.0275 3.08802, 23.1413 3.021, 23.2942 3.02055 L 25.6954 3.02055 C 25.7647 3.021, 25.824 3.04484, 25.8735 3.09252, 25.8933 3.1312, 25.9032 3.16719, 25.9032 3.20048, 25.9032 3.22972, 25.896 3.25626, 25.8807 3.27965 Z" stroke="none" fill="#000000" />
			<path d="M 36.7872 11.0599 C 36.7283 11.3145, 36.6397 11.5799, 36.5209 11.8556, 36.4022 12.1318, 36.26 12.3824, 36.0945 12.6078, 35.929 12.8336, 35.7351 13.0216, 35.5129 13.1723, 35.2907 13.3234, 35.0334 13.399, 34.7419 13.399, 34.4949 13.399, 34.2826 13.3464, 34.1045 13.2407, 33.9268 13.1354, 33.7923 12.9964, 33.7005 12.8237, 33.6092 12.6509, 33.5584 12.4494, 33.5485 12.2187 L 33.5485 12.1611 C 33.5485 11.9551, 33.5908 11.7463, 33.6744 11.5349, 33.8377 11.113, 33.9884 10.6933, 34.1269 10.2758, 34.2655 9.8584, 34.3914 9.43871, 34.5048 9.01587, 34.584 8.73787, 34.638 8.46708, 34.6676 8.20258, 34.6775 8.136, 34.6825 8.06403, 34.6825 7.98666, 34.6825 7.81932, 34.6577 7.66098, 34.6083 7.51164, 34.5196 7.2098, 34.3321 7.05866, 34.0451 7.05821, 33.5413 7.05866, 33.1063 7.23275, 32.7406 7.58046, 32.3753 7.92863, 32.0564 8.39016, 31.7847 8.96549, 31.6317 9.61864, 31.4685 10.27, 31.2957 10.92, 31.123 11.5704, 30.9521 12.2191, 30.7838 12.8664, 30.7397 13.0445, 30.6484 13.1772, 30.5099 13.2659, 30.3713 13.3549, 30.2355 13.399, 30.1023 13.399, 29.9593 13.399, 29.8405 13.3513, 29.7465 13.2551, 29.6822 13.193, 29.6476 13.1066, 29.6426 12.996, 29.6426 12.9438, 29.6476 12.8907, 29.6574 12.8376 L 30.6507 9.01587 C 30.7298 8.73787, 30.7838 8.46708, 30.8135 8.20258 L 30.8135 7.98666 C 30.8135 7.81437, 30.7937 7.65603, 30.7541 7.51164, 30.6655 7.2098, 30.4779 7.05866, 30.1909 7.05821, 29.6871 7.05866, 29.2526 7.23275, 28.8869 7.58046, 28.5212 7.92863, 28.2 8.39016, 27.9229 8.96549 L 26.9076 12.8664 C 26.8636 13.0445, 26.7731 13.1772, 26.6373 13.2659, 26.5014 13.3549, 26.3642 13.399, 26.2257 13.399, 26.0777 13.399, 25.9639 13.3513, 25.8847 13.2551, 25.8209 13.193, 25.7885 13.1066, 25.7885 12.996, 25.7885 12.9532, 25.7934 12.9006, 25.8033 12.8376 L 26.9445 8.38251 C 27.0237 8.07123, 27.0633 7.80223, 27.0633 7.57642 L 27.0633 7.40368 C 27.039 7.17382, 26.9229 7.05866, 26.7151 7.05821, 26.4978 7.05866, 26.3161 7.2341, 26.1704 7.58406, 26.0246 7.93448, 25.8825 8.39016, 25.7439 8.95109, 25.69 9.08109, 25.5986 9.14812, 25.47 9.15262 L 25.2995 9.15262 C 25.1807 9.15307, 25.1214 9.09324, 25.1214 8.97268 L 25.1214 8.9223 C 25.1807 8.69739, 25.2478 8.45133, 25.3215 8.18503, 25.3958 7.91874, 25.4947 7.66683, 25.618 7.42932, 25.7417 7.19181, 25.8973 6.99029, 26.0849 6.82475, 26.2729 6.65921, 26.5073 6.57645, 26.7889 6.57599, 27.1946 6.57645, 27.5131 6.6988, 27.7452 6.94351, 27.9773 7.18821, 28.0983 7.42572, 28.1082 7.65558, 28.3161 7.38254, 28.6048 7.13423, 28.9755 6.91112, 29.3462 6.688, 29.7762 6.57645, 30.2652 6.57599, 30.5666 6.57645, 30.8436 6.63042, 31.0956 6.73838, 31.3475 6.84634, 31.5427 7.02043, 31.6808 7.25974, 31.7995 7.46666, 31.8634 7.63939, 31.8733 7.77794, 32.091 7.47116, 32.3924 7.19451, 32.7779 6.9471, 33.1634 6.70015, 33.6155 6.57645, 34.1341 6.57599, 34.4256 6.57645, 34.6973 6.63042, 34.9492 6.73838, 35.2011 6.84634, 35.3991 7.02043, 35.5421 7.25974, 35.6906 7.50489, 35.7625 7.78064, 35.7571 8.08742 L 35.7571 8.12341 C 35.7472 8.43109, 35.7031 8.74057, 35.624 9.05185, 35.5106 9.48909, 35.3797 9.91867, 35.2313 10.3406, 35.0828 10.763, 34.9272 11.1899, 34.7639 11.6213, 34.6159 12.0104, 34.5417 12.3365, 34.5417 12.6001, 34.5417 12.8165, 34.6357 12.9244, 34.8233 12.924, 34.9915 12.9244, 35.1431 12.8741, 35.279 12.7733, 35.4148 12.6725, 35.5385 12.5371, 35.6496 12.3666, 35.7612 12.1966, 35.861 11.9951, 35.9501 11.7621, 36.0392 11.5295, 36.1179 11.2835, 36.1872 11.0239, 36.2169 10.8998, 36.3032 10.8372, 36.4463 10.8368 L 36.6096 10.8368 C 36.664 10.8372, 36.7207 10.8539, 36.78 10.8872, 36.7998 10.9308, 36.8097 10.9668, 36.8097 10.9951, 36.8097 11.0149, 36.8025 11.0365, 36.7872 11.0599 Z" stroke="none" fill="#000000" />
			<path d="M 19.5657 26.2249 C 19.5117 26.4363, 19.4015 26.596, 19.236 26.704, 19.0704 26.8119, 18.9036 26.8659, 18.7353 26.8654, 18.5626 26.8659, 18.4191 26.8106, 18.3053 26.6999, 18.2117 26.6234, 18.1645 26.5182, 18.1645 26.3832, 18.1645 26.3167, 18.1744 26.2492, 18.1942 26.1817, 18.2387 26.0144, 18.3165 25.8826, 18.4276 25.7863, 18.5392 25.6905, 18.6143 25.6374, 18.6539 25.6275, 18.5405 25.5416, 18.3057 25.4984, 17.9495 25.498, 17.5743 25.4984, 17.2396 25.6509, 16.9455 25.9554, 16.6513 26.2604, 16.3859 26.6716, 16.1484 27.1893 L 15.0733 31.3062 C 15.0292 31.4843, 14.9388 31.617, 14.8029 31.7056, 14.6671 31.7947, 14.5299 31.8388, 14.3913 31.8388, 14.2433 31.8388, 14.1295 31.7911, 14.0504 31.6948, 13.9865 31.6327, 13.9541 31.5464, 13.9541 31.4357, 13.9541 31.393, 13.959 31.3403, 13.9689 31.2774 L 15.1101 26.8223 C 15.1893 26.511, 15.2289 26.242, 15.2289 26.0162 L 15.2289 25.8434 C 15.2046 25.6136, 15.0886 25.4984, 14.8807 25.498, 14.663 25.4984, 14.4813 25.6738, 14.3355 26.0238, 14.1898 26.3742, 14.0481 26.8299, 13.9096 27.3908, 13.8551 27.5208, 13.7638 27.5879, 13.6352 27.5924 L 13.4647 27.5924 C 13.3459 27.5928, 13.2865 27.533, 13.2865 27.4124 L 13.2865 27.3621 C 13.3459 27.1371, 13.4129 26.8911, 13.4872 26.6248, 13.5614 26.3585, 13.6604 26.1066, 13.7836 25.8691, 13.9073 25.6316, 14.0629 25.43, 14.2505 25.2645, 14.4386 25.099, 14.6729 25.0162, 14.9545 25.0157, 15.3306 25.0162, 15.6333 25.1233, 15.8627 25.3365, 16.0926 25.5501, 16.2221 25.7598, 16.2518 25.9658, 16.425 25.7359, 16.6661 25.52, 16.9747 25.3185, 17.2837 25.117, 17.6382 25.0162, 18.0385 25.0157, 18.2365 25.0162, 18.4375 25.0369, 18.6427 25.0774, 18.8478 25.1183, 19.0282 25.1853, 19.1838 25.2789, 19.3394 25.3725, 19.4546 25.4962, 19.5288 25.6491, 19.5734 25.7454, 19.5981 25.8533, 19.6026 25.973, 19.6026 26.0454, 19.5904 26.1295, 19.5657 26.2249 Z" stroke="none" fill="#000000" />
			<path d="M 2.42322 -1.33304 C 2.37082 -1.10431, 2.26351 -0.895479, 2.10153 -0.706047, 1.93981 -0.516615, 1.75239 -0.339778, 1.53928 -0.17604, 1.32617 -0.0120506, 1.0987 0.140352, 0.856371 0.281418, 0.614291 0.422484, 0.38531 0.553475, 0.169428 0.674137, -0.09885 0.819486, -0.338159 0.992796, -0.548499 1.19432, -0.758587 1.39584, -0.91502 1.5825, -1.01754 1.7543, -1.03971 1.76539, -1.00495 1.77068, -0.91376 1.77042, -0.758587 1.77068, -0.608452 1.78478, -0.463356 1.813, -0.318007 1.84121, -0.172658 1.87018, -0.0275611 1.89965, 0.117788 1.92938, 0.258854 1.95809, 0.39589 1.98631, 0.532926 2.01452, 0.677267 2.02863, 0.829417 2.02837, 0.937484 2.02863, 1.04328 2.00243, 1.14707 1.95003, 1.25085 1.89764, 1.34834 1.82584, 1.43953 1.7344, 1.53097 1.64321, 1.60982 1.53691, 1.67632 1.41599, 1.74282 1.29508, 1.79119 1.1714, 1.82142 1.04494, 1.83804 0.975414, 1.88943 0.93914, 1.97508 0.936117 L 2.07055 0.936117 C 2.10657 0.936369, 2.13982 0.94569, 2.17005 0.964331, 2.18114 0.988765, 2.18668 1.01018, 2.18668 1.02882, 2.18668 1.0399, 2.18265 1.05199, 2.17408 1.06509, 2.12446 1.25881, 2.05669 1.45177, 1.9708 1.64372, 1.88515 1.83592, 1.77859 2.012, 1.65138 2.17171, 1.52417 2.33167, 1.37832 2.45989, 1.21357 2.55637, 1.04883 2.6531, 0.869722 2.70146, 0.675756 2.70146, 0.495896 2.70146, 0.336944 2.6667, 0.198649 2.59667, 0.0603535 2.52689, -0.0683696 2.45183, -0.187268 2.37122, -0.306167 2.29061, -0.426578 2.21554, -0.548499 2.14551, -0.670169 2.07573, -0.809976 2.04072, -0.967668 2.04047, -1.0508 2.04072, -1.13166 2.09185, -1.2105 2.19388, -1.28935 2.29615, -1.34955 2.43041, -1.39112 2.59667, -1.40774 2.6667, -1.45888 2.70146, -1.54478 2.70146 L -1.63597 2.70146 C -1.67728 2.70146, -1.7065 2.69088, -1.72313 2.66922, -1.7453 2.65864, -1.75638 2.63975, -1.75638 2.61279, -1.75638 2.60221, -1.7521 2.58861, -1.74379 2.57249, -1.63043 2.13745, -1.42084 1.72584, -1.11503 1.3374, -0.80922 0.949216, -0.432371 0.632824, 0.0160184 0.387973, 0.403447 0.181412, 0.748556 -0.0697367, 1.0516 -0.365472, 1.35464 -0.660956, 1.5544 -0.990195, 1.65113 -1.35319, 1.71486 -1.57587, 1.75768 -1.79503, 1.77985 -2.01016 L 1.77985 -2.14316 C 1.77985 -2.30136, 1.75643 -2.45048, 1.70932 -2.59054, 1.64861 -2.73262, 1.5607 -2.84749, 1.44583 -2.9349, 1.33096 -3.02206, 1.19342 -3.06589, 1.0327 -3.06614, 0.836471 -3.06589, 0.651825 -3.01551, 0.478766 -2.91474, 0.30596 -2.81398, 0.146757 -2.68022, 0.00140786 -2.51371, -0.143689 -2.34695, -0.269641 -2.15349, -0.376197 -1.93332, -0.482752 -1.71291, -0.566384 -1.48468, -0.627345 -1.2484, -0.660597 -1.12723, -0.677222 -1.02118, -0.677222 -0.92999, -0.677222 -0.892204, -0.67168 -0.85593, -0.660597 -0.821167, -0.646742 -0.721413, -0.598376 -0.671788, -0.515248 -0.67204, -0.421036 -0.671788, -0.334632 -0.69723, -0.255786 -0.748367, -0.17694 -0.799252, -0.103636 -0.869281, -0.0358739 -0.957951, 0.0318884 -1.04662, 0.0941086 -1.15066, 0.150787 -1.27031, 0.207717 -1.38972, 0.255327 -1.51542, 0.294121 -1.64741, 0.305204 -1.69276, 0.310494 -1.73709, 0.310494 -1.78042, 0.310494 -1.81518, 0.307975 -1.84743, 0.302433 -1.87715, 0.288579 -1.95474, 0.258098 -2.0288, 0.210992 -2.09883, 0.202931 -2.11747, 0.198649 -2.13762, 0.198649 -2.15928, 0.198649 -2.19934, 0.218045 -2.23435, 0.256587 -2.26408 L 0.277495 -2.2802 C 0.316288 -2.3069, 0.348028 -2.32151, 0.372967 -2.32453, 0.414531 -2.32428, 0.445011 -2.30539, 0.464156 -2.26811, 0.558368 -2.155, 0.605222 -2.022, 0.605222 -1.86909, 0.605222 -1.78823, 0.594391 -1.70762, 0.572223 -1.62726, 0.530659 -1.48468, 0.476751 -1.34135, 0.410249 -1.19776, 0.343746 -1.05393, 0.265656 -0.922937, 0.175726 -0.804793, 0.0860476 -0.686399, -0.0212635 -0.589667, -0.145704 -0.5146, -0.270145 -0.43928, -0.407181 -0.401747, -0.556812 -0.401999, -0.67294 -0.401747, -0.766396 -0.427945, -0.83693 -0.480341, -0.907463 -0.532737, -0.956584 -0.60327, -0.984294 -0.692192, -1.01452 -0.77255, -1.03115 -0.85719, -1.03417 -0.946112, -1.03417 -0.961982, -1.0314 -0.975333, -1.02586 -0.986417, -1.02586 -1.07761, -1.01326 -1.17283, -0.988576 -1.27258, -0.916531 -1.52751, -0.818037 -1.77866, -0.693596 -2.02603, -0.569155 -2.27314, -0.417509 -2.49482, -0.239161 -2.69105, -0.0608125 -2.88703, 0.139955 -3.04573, 0.362639 -3.16665, 0.585322 -3.28756, 0.825387 -3.34802, 1.08258 -3.34827, 1.34003 -3.34802, 1.5675 -3.29411, 1.76549 -3.1868, 1.96349 -3.07924, 2.1232 -2.93288, 2.24487 -2.74773, 2.37485 -2.54873, 2.45521 -2.32831, 2.48544 -2.08673, 2.49652 -2.00864, 2.50206 -1.9361, 2.50206 -1.86909, 2.50206 -1.68873, 2.47586 -1.51013, 2.42322 -1.33304 Z" stroke="none" fill="#000000" transform="matrix(1.12 0 0 1 23.3463 23.2394)" />
			<rect />
		</svg>
	</g>
	<path d="M 0 0 L 35 0, 35 0, 70.0001 0" fill="none" stroke="#000000" stroke-width="1.39999998" stroke-linecap="round" stroke-linejoin="round" marker-end="url(#CustomMarker-02)" transform="matrix(0.714286 0 0 0.714286 274.078 147.02)" />
	<rect x="-69.0807343" y="-42.5112" width="138.161469" height="85.0223999" stroke="none" fill="#F7F670" fill-opacity="0.592156827" transform="matrix(0.714286 0 -0 0.714286 373.422 147.02)" />
	<path d="M -69.0807 -42.5112 L 69.0807 -42.5112, 69.0807 42.5112, -69.0807 42.5112 Z" fill="none" stroke="#000000" stroke-width="1.39999998" stroke-linecap="round" stroke-linejoin="round" transform="matrix(0.714286 0 -0 0.714286 373.422 147.02)" />
	<path d="M 0 0 L 0 21.0001, 0 21.0001, 0 42.0002" fill="none" stroke="#000000" stroke-width="1.39999998" stroke-linecap="round" stroke-linejoin="round" marker-end="url(#CustomMarker-03)" transform="matrix(0.714286 0 0 0.714286 224.735 177.385)" />
	<path d="M -69.0808 42.5112 C -47.4492 31.1748, -21.6318 31.1748, -6.4344e-005 42.5111 L 1.5107e-005 42.5111 C 21.6317 53.8474, 47.4491 53.8474, 69.0808 42.5111 L 69.0808 -42.5111, -69.0808 -42.5111 Z" stroke="none" fill="#F7F670" fill-opacity="0.596078396" transform="matrix(0.714286 0 -0 0.714286 224.735 237.75)" />
	<path d="M -69.0808 42.5112 C -47.4492 31.1748, -21.6318 31.1748, -6.4344e-005 42.5111 L 1.5107e-005 42.5111 C 21.6317 53.8474, 47.4491 53.8474, 69.0808 42.5111 L 69.0808 -42.5111, -69.0808 -42.5111 Z" fill="none" stroke="#000000" stroke-width="1.39999998" stroke-linecap="round" stroke-linejoin="round" transform="matrix(0.714286 0 -0 0.714286 224.735 237.75)" />
	<path d="M 0 0 L 0 -21, 0 -21, 0 -42" fill="none" stroke="#000000" stroke-width="1.39999998" stroke-linecap="round" stroke-linejoin="round" marker-end="url(#CustomMarker-04)" transform="matrix(0.714286 0 0 0.714286 76.048 116.655)" />
	<rect x="-69.0805893" y="-42.5112457" width="138.161179" height="85.0224915" stroke="none" fill="#FE5B8E" fill-opacity="0.599999964" transform="matrix(0.714286 0 -0 0.714286 76.0482 56.2898)" />
	<path d="M -69.0806 -42.5112 L 69.0806 -42.5112, 69.0806 42.5112, -69.0806 42.5112 Z" fill="none" stroke="#000000" stroke-width="1.39999998" stroke-linecap="round" stroke-linejoin="round" transform="matrix(0.714286 0 -0 0.714286 76.0482 56.2898)" />
	<path d="M 0 0 L 34.9999 0, 34.9999 0, 69.9999 0" fill="none" stroke="#000000" stroke-width="1.39999998" stroke-linecap="round" stroke-linejoin="round" marker-end="url(#CustomMarker-05)" transform="matrix(0.714286 0 0 0.714286 125.391 56.2899)" />
	<rect x="-69.0807648" y="-42.5112457" width="138.16153" height="85.0224915" stroke="none" fill="#BF4BAF" fill-opacity="0.599999964" transform="matrix(0.714286 0 -0 0.714286 224.735 56.2898)" />
	<path d="M -69.0808 -42.5112 L 69.0808 -42.5112, 69.0808 42.5112, -69.0808 42.5112 Z" fill="none" stroke="#000000" stroke-width="1.39999998" stroke-linecap="round" stroke-linejoin="round" transform="matrix(0.714286 0 -0 0.714286 224.735 56.2898)" />
	<g transform="matrix(1 0 -0 1 186.111 49.085)">
		<svg width="233.97789" height="29.9999962">
			<defs />
			<path d="M 4.86177 9.32577 C 4.79331 9.81674, 4.56181 10.2105, 4.16764 10.5068, 3.77347 10.8031, 3.29722 10.951, 2.7389 10.951, 2.36718 10.951, 2.01349 10.8785, 1.67784 10.7335, 1.34218 10.5885, 1.04922 10.3879, 0.798217 10.1325, 0.535435 9.86606, 0.336324 9.5639, 0.200885 9.22603, 0.0654452 8.88854, -0.00264257 8.53522, -0.00264257 8.1657, -0.00264257 7.7892, 0.0643411 7.42631, 0.197572 7.07667, 0.331172 6.7274, 0.531386 6.41714, 0.798217 6.14589, 1.04922 5.88311, 1.34218 5.67811, 1.67784 5.53089, 2.01349 5.38367, 2.36718 5.31007, 2.7389 5.3097, 2.97371 5.31007, 3.20816 5.33472, 3.4426 5.38367, 3.67741 5.43299, 3.88866 5.51028, 4.07673 5.61628, 4.2648 5.72227, 4.41938 5.86066, 4.54047 6.03143, 4.66192 6.2022, 4.72228 6.40352, 4.72228 6.63465, 4.72228 6.83928, 4.65677 6.99423, 4.52538 7.10022, 4.39399 7.20622, 4.24935 7.25922, 4.09146 7.25885, 3.93393 7.25922, 3.78966 7.20622, 3.65827 7.10022, 3.52688 6.99423, 3.461 6.83928, 3.461 6.63465, 3.461 6.43075, 3.53166 6.27397, 3.67299 6.16356, 3.79445 6.07743, 3.92621 6.03253, 4.06753 6.02812 L 3.95197 6.02812 C 3.88351 5.96555, 3.73372 5.90004, 3.50333 5.83121, 3.27293 5.76276, 3.01825 5.72816, 2.7389 5.72779, 2.51292 5.72816, 2.29541 5.78926, 2.0871 5.91071, 1.87879 6.03253, 1.70618 6.19521, 1.56853 6.3991, 1.40291 6.65452, 1.2936 6.93166, 1.24097 7.22977, 1.18871 7.52825, 1.16221 7.84035, 1.16221 8.1657, 1.16221 8.47633, 1.19349 8.77665, 1.25606 9.06704, 1.31863 9.35779, 1.43898 9.62462, 1.61711 9.86753, 1.76285 10.0681, 1.94172 10.2282, 2.15372 10.3478, 2.36608 10.4678, 2.58948 10.5274, 2.82392 10.5271, 3.25674 10.5274, 3.60859 10.4119, 3.87946 10.18, 4.15034 9.9485, 4.33436 9.65002, 4.43116 9.28455, 4.45545 9.1907, 4.51434 9.14359, 4.60708 9.14322 L 4.71639 9.155 C 4.81355 9.17892, 4.86177 9.23597, 4.86177 9.32577 Z" stroke="none" fill="#000000" />
			<path d="M 11.2343 9.7792 C 11.2343 9.93267, 11.206 10.074, 11.1493 10.2036, 11.0926 10.3331, 11.0161 10.4501, 10.9189 10.5539, 10.8221 10.6581, 10.7069 10.7394, 10.5733 10.7979, 10.4401 10.8568, 10.2965 10.8863, 10.1427 10.8863, 9.85563 10.8863, 9.62046 10.7825, 9.43643 10.5745, 9.25241 10.3666, 9.15635 10.2017, 9.14826 10.0795, 9.0798 10.2407, 8.89983 10.4266, 8.60871 10.6364, 8.31759 10.8462, 7.98414 10.951, 7.608 10.951, 7.36546 10.951, 7.12182 10.9257, 6.87744 10.8745, 6.63306 10.8237, 6.40855 10.7475, 6.20429 10.6452, 6.00003 10.5433, 5.83514 10.4067, 5.71001 10.2359, 5.58488 10.0652, 5.52194 9.85612, 5.52194 9.60843, 5.52194 9.25952, 5.6283 8.95331, 5.8403 8.69016, 6.05266 8.42738, 6.31249 8.21723, 6.61944 8.05971, 7.00773 7.87164, 7.40889 7.7443, 7.82331 7.67731, 8.23772 7.6107, 8.63889 7.56727, 9.0268 7.54739 L 9.0268 7.0763 C 9.0268 6.90001, 8.99662 6.72445, 8.9359 6.54963, 8.87554 6.37518, 8.78463 6.22281, 8.66318 6.09289, 8.42874 5.82238, 8.14387 5.68878, 7.80822 5.69246, 7.53329 5.69283, 7.27971 5.73699, 7.04711 5.82532, 6.8145 5.91365, 6.65809 6.00677, 6.57712 6.10467 L 6.51639 6.10467 C 6.66213 6.10504, 6.79757 6.14442, 6.92271 6.22244, 7.0725 6.32476, 7.14721 6.48596, 7.14721 6.70531, 7.14721 6.90994, 7.07949 7.06305, 6.94405 7.165, 6.80862 7.26731, 6.66618 7.3181, 6.51639 7.31773, 6.36292 7.3181, 6.21828 7.26731, 6.08284 7.165, 5.9474 7.06305, 5.87968 6.90994, 5.87968 6.70531, 5.87968 6.47786, 5.93746 6.27581, 6.05266 6.09915, 6.16785 5.92249, 6.31728 5.77527, 6.5013 5.6575, 6.68532 5.53972, 6.89142 5.4525, 7.11961 5.39545, 7.34816 5.33877, 7.57782 5.31007, 7.80822 5.3097, 8.09124 5.31007, 8.36506 5.35129, 8.62969 5.43373, 8.89468 5.51617, 9.13611 5.64388, 9.35436 5.81612, 9.55237 5.97733, 9.7121 6.16503, 9.83355 6.37886, 9.95501 6.59306, 10.0154 6.82529, 10.0154 7.0763 L 10.0154 9.7792 C 10.0154 9.9404, 10.0489 10.0821, 10.1155 10.2036, 10.1825 10.3254, 10.2822 10.3861, 10.4154 10.3857, 10.5409 10.3861, 10.6359 10.3254, 10.7007 10.2036, 10.7654 10.0821, 10.7975 9.9404, 10.7975 9.7792 L 10.7975 8.9489, 11.2343 8.9489, 11.2343 9.7792 Z M 9.0268 7.92427 C 8.75593 7.93641, 8.46996 7.97395, 8.1689 8.03652, 7.86784 8.09946, 7.58776 8.20913, 7.32903 8.36592, 7.10673 8.49989, 6.93007 8.67949, 6.79868 8.9051, 6.66729 9.13108, 6.60141 9.36552, 6.60141 9.60843, 6.60141 9.74608, 6.62791 9.87195, 6.68017 9.98567, 6.7328 10.0998, 6.80641 10.1999, 6.90136 10.286, 6.99632 10.3725, 7.10673 10.4402, 7.23186 10.4892, 7.35737 10.5385, 7.49096 10.5628, 7.63229 10.5624, 7.8303 10.5628, 8.01248 10.5274, 8.1781 10.4568, 8.34372 10.3861, 8.4902 10.286, 8.61754 10.1564, 8.74488 10.0269, 8.84499 9.87599, 8.91786 9.70302, 8.99074 9.5304, 9.0268 9.34785, 9.0268 9.155 Z" stroke="none" fill="#000000" />
			<path d="M 15.3615 9.29633 C 15.3615 9.49286, 15.3354 9.6894, 15.2827 9.88556, 15.2301 10.0821, 15.1543 10.2588, 15.0553 10.4155, 14.9563 10.5727, 14.8278 10.7011, 14.6703 10.8009, 14.5128 10.901, 14.3288 10.951, 14.1183 10.951, 13.9 10.951, 13.6818 10.9198, 13.4635 10.8568, 13.2453 10.7943, 13.0491 10.6787, 12.8754 10.5098, 12.7017 10.3412, 12.582 10.1498, 12.5173 9.93562, 12.4525 9.72178, 12.4201 9.50869, 12.4201 9.29633 L 12.4201 5.99278, 11.3649 5.99278, 11.3649 5.61002 C 11.6601 5.61039, 11.9048 5.54672, 12.0988 5.41901, 12.2931 5.29166, 12.4558 5.12273, 12.5872 4.91258, 12.7186 4.7028, 12.8165 4.45915, 12.8813 4.18238, 12.946 3.90562, 12.9781 3.60419, 12.9781 3.27811 L 13.4087 3.27811, 13.4087 5.49814, 15.1613 5.49814, 15.1613 5.99278, 13.4087 5.99278, 13.4087 9.29633 C 13.4087 9.47741, 13.4241 9.64707, 13.4543 9.80607, 13.4845 9.96506, 13.5401 10.1093, 13.621 10.2385, 13.7587 10.4314, 13.9423 10.5274, 14.1727 10.5271, 14.2942 10.5274, 14.4002 10.4972, 14.4911 10.4362, 14.5824 10.3754, 14.66 10.2871, 14.7248 10.1712, 14.7896 10.0556, 14.84 9.922, 14.8764 9.77073, 14.9129 9.61984, 14.9309 9.46158, 14.9309 9.29633 L 14.9309 8.51313, 15.3615 8.51313, 15.3615 9.29633 Z" stroke="none" fill="#000000" />
			<path d="M 21.1379 9.32577 C 21.0694 9.81674, 20.8379 10.2105, 20.4437 10.5068, 20.0496 10.8031, 19.5733 10.951, 19.015 10.951, 18.6433 10.951, 18.2896 10.8785, 17.9539 10.7335, 17.6183 10.5885, 17.3253 10.3879, 17.0743 10.1325, 16.8115 9.86606, 16.6124 9.5639, 16.477 9.22603, 16.3415 8.88854, 16.2735 8.53522, 16.2735 8.1657, 16.2735 7.7892, 16.3404 7.42631, 16.4737 7.07667, 16.6073 6.7274, 16.8075 6.41714, 17.0743 6.14589, 17.3253 5.88311, 17.6183 5.67811, 17.9539 5.53089, 18.2896 5.38367, 18.6433 5.31007, 19.015 5.3097, 19.2498 5.31007, 19.4843 5.33472, 19.7187 5.38367, 19.9535 5.43299, 20.1648 5.51028, 20.3528 5.61628, 20.5409 5.72227, 20.6955 5.86066, 20.8166 6.03143, 20.938 6.2022, 20.9984 6.40352, 20.9984 6.63465, 20.9984 6.83928, 20.9329 6.99423, 20.8015 7.10022, 20.6701 7.20622, 20.5255 7.25922, 20.3676 7.25885, 20.21 7.25922, 20.0658 7.20622, 19.9344 7.10022, 19.803 6.99423, 19.7371 6.83928, 19.7371 6.63465, 19.7371 6.43075, 19.8078 6.27397, 19.9491 6.16356, 20.0706 6.07743, 20.2023 6.03253, 20.3436 6.02812 L 20.2281 6.02812 C 20.1596 5.96555, 20.0098 5.90004, 19.7794 5.83121, 19.549 5.76276, 19.2944 5.72816, 19.015 5.72779, 18.789 5.72816, 18.5715 5.78926, 18.3632 5.91071, 18.1549 6.03253, 17.9823 6.19521, 17.8446 6.3991, 17.679 6.65452, 17.5697 6.93166, 17.5171 7.22977, 17.4648 7.52825, 17.4383 7.84035, 17.4383 8.1657, 17.4383 8.47633, 17.4696 8.77665, 17.5322 9.06704, 17.5947 9.35779, 17.7151 9.62462, 17.8932 9.86753, 18.039 10.0681, 18.2178 10.2282, 18.4298 10.3478, 18.6422 10.4678, 18.8656 10.5274, 19.1 10.5271, 19.5328 10.5274, 19.8847 10.4119, 20.1556 10.18, 20.4264 9.9485, 20.6105 9.65002, 20.7073 9.28455, 20.7316 9.1907, 20.7904 9.14359, 20.8832 9.14322 L 20.9925 9.155 C 21.0897 9.17892, 21.1379 9.23597, 21.1379 9.32577 Z" stroke="none" fill="#000000" />
			<path d="M 28.0202 10.8215 C 27.5068 10.7943, 27.0177 10.7803, 26.5525 10.7803, 26.0799 10.7803, 25.5967 10.7943, 25.1035 10.8215 L 25.1035 10.3268 C 25.2853 10.3272, 25.452 10.3243, 25.6036 10.3184, 25.7553 10.3125, 25.8697 10.2919, 25.9463 10.2562, 25.9908 10.233, 26.0203 10.1929, 26.0343 10.1358, 26.0482 10.0792, 26.0552 10.017, 26.0552 9.94997 L 26.0552 7.0763 C 26.0552 6.8805, 26.0453 6.6939, 26.0251 6.51724, 26.0052 6.34058, 25.9485 6.17975, 25.8554 6.034, 25.7987 5.94015, 25.7148 5.8717, 25.6036 5.82827, 25.4925 5.78521, 25.3744 5.76349, 25.2489 5.76313, 25.0185 5.76349, 24.8035 5.81171, 24.6033 5.90777, 24.4031 6.00419, 24.2323 6.13374, 24.0906 6.29642, 23.9493 6.45946, 23.8359 6.65084, 23.7509 6.87056, 23.6663 7.09065, 23.6236 7.31994, 23.6236 7.55917 L 23.6236 9.94997 C 23.6236 10.017, 23.6317 10.0792, 23.6479 10.1358, 23.6641 10.1929, 23.6965 10.233, 23.745 10.2562, 23.822 10.2919, 23.9372 10.3125, 24.0906 10.3184, 24.2445 10.3243, 24.4101 10.3272, 24.5879 10.3268 L 24.5879 10.8156 C 24.3818 10.8079, 24.1918 10.802, 24.0181 10.7979, 23.8444 10.7943, 23.6744 10.7884, 23.5084 10.7803 L 23.1264 10.7803 C 22.6534 10.7803, 22.1702 10.7943, 21.677 10.8215 L 21.677 10.3268 C 21.8592 10.3272, 22.0259 10.3243, 22.1775 10.3184, 22.3292 10.3125, 22.4436 10.2919, 22.5202 10.2562, 22.5688 10.233, 22.6008 10.1929, 22.617 10.1358, 22.6332 10.0792, 22.6413 10.017, 22.6413 9.94997 L 22.6413 3.55487 C 22.6413 3.45329, 22.6365 3.35429, 22.6262 3.25786, 22.6163 3.1618, 22.5769 3.0882, 22.508 3.03667, 22.4396 2.98993, 22.3284 2.96269, 22.1746 2.9546, 22.0208 2.94687, 21.8551 2.94282, 21.677 2.94245 L 21.677 2.46547, 22.72 2.38892, 23.5813 2.32414, 23.5813 6.32844 C 23.6663 6.14442, 23.8676 5.93831, 24.1848 5.7105, 24.5021 5.48305, 24.865 5.36895, 25.2731 5.36858, 25.4999 5.36895, 25.7332 5.39545, 25.9735 5.44845, 26.2142 5.50145, 26.4255 5.61628, 26.6073 5.79294, 26.7891 5.9696, 26.9084 6.17276, 26.965 6.40241, 27.0217 6.63207, 27.0501 6.85695, 27.0501 7.0763 L 27.0501 9.94997 C 27.0501 10.017, 27.0582 10.0792, 27.0743 10.1358, 27.0905 10.1929, 27.1226 10.233, 27.1711 10.2562, 27.2481 10.2919, 27.3633 10.3125, 27.5167 10.3184, 27.6706 10.3243, 27.8384 10.3272, 28.0202 10.3268 L 28.0202 10.8215 Z" stroke="none" fill="#000000" />
			<path d="M 41.0037 10.8215 C 40.4781 10.7943, 39.971 10.7803, 39.4815 10.7803 L 39.2448 10.7803 C 38.6747 10.7884, 38.0822 10.8001, 37.4676 10.8156 L 37.4676 10.3268 C 37.6497 10.3272, 37.8135 10.3206, 37.9589 10.3066, 38.1046 10.293, 38.2338 10.2643, 38.3472 10.2208, 38.3998 10.1936, 38.4462 10.1524, 38.4867 10.0972, 38.5029 10.078, 38.511 10.0523, 38.511 10.0206, 38.511 10.0052, 38.5091 9.98751, 38.5047 9.96764 L 37.8194 8.0656, 34.8412 8.0656, 34.2774 9.64376 C 34.2571 9.69124, 34.2468 9.73651, 34.2468 9.7792, 34.2468 9.81895, 34.2531 9.85796, 34.2652 9.89697, 34.2976 9.98383, 34.3502 10.0545, 34.4227 10.109, 34.528 10.1958, 34.6403 10.2536, 34.7595 10.283, 34.8787 10.3125, 35.0234 10.3272, 35.1931 10.3268 L 35.1931 10.8156 C 34.7039 10.8001, 34.2369 10.7884, 33.7919 10.7803 L 33.6042 10.7803 C 33.2159 10.7803, 32.8115 10.7943, 32.3912 10.8215 L 32.3912 10.3268 C 32.5855 10.3272, 32.754 10.3147, 32.8976 10.2889, 33.0411 10.2635, 33.1795 10.2135, 33.3127 10.1384, 33.5313 10.017, 33.6848 9.83845, 33.7739 9.60254 L 36.394 2.22403 C 36.4345 2.10663, 36.5195 2.04958, 36.6487 2.05326 L 36.7458 2.05326 C 36.8754 2.05363, 36.96 2.11068, 37.0005 2.22403 L 39.7542 9.93231 C 39.7748 10.0074, 39.8061 10.074, 39.8484 10.1329, 39.8911 10.1918, 39.9485 10.2312, 40.021 10.2503, 40.1263 10.29, 40.265 10.3125, 40.4369 10.3184, 40.6088 10.3243, 40.7976 10.3272, 41.0037 10.3268 L 41.0037 10.8215 Z M 36.3395 3.88464 L 35.0171 7.57684, 37.6435 7.57684 Z" stroke="none" fill="#000000" />
			<path d="M 51.3763 9.7792 C 51.3763 9.93267, 51.348 10.074, 51.2913 10.2036, 51.2346 10.3331, 51.1581 10.4501, 51.0609 10.5539, 50.9641 10.6581, 50.8489 10.7394, 50.7153 10.7979, 50.5821 10.8568, 50.4385 10.8863, 50.2847 10.8863, 49.9976 10.8863, 49.7624 10.7825, 49.5784 10.5745, 49.3944 10.3666, 49.2983 10.2017, 49.2902 10.0795, 49.2218 10.2407, 49.0418 10.4266, 48.7507 10.6364, 48.4596 10.8462, 48.1261 10.951, 47.75 10.951, 47.5074 10.951, 47.2638 10.9257, 47.0194 10.8745, 46.775 10.8237, 46.5505 10.7475, 46.3463 10.6452, 46.142 10.5433, 45.9771 10.4067, 45.852 10.2359, 45.7269 10.0652, 45.6639 9.85612, 45.6639 9.60843, 45.6639 9.25952, 45.7703 8.95331, 45.9823 8.69016, 46.1946 8.42738, 46.4545 8.21723, 46.7614 8.05971, 47.1497 7.87164, 47.5509 7.7443, 47.9653 7.67731, 48.3797 7.6107, 48.7809 7.56727, 49.1688 7.54739 L 49.1688 7.0763 C 49.1688 6.90001, 49.1386 6.72445, 49.0779 6.54963, 49.0175 6.37518, 48.9266 6.22281, 48.8052 6.09289, 48.5707 5.82238, 48.2859 5.68878, 47.9502 5.69246, 47.6753 5.69283, 47.4217 5.73699, 47.1891 5.82532, 46.9565 5.91365, 46.8001 6.00677, 46.7191 6.10467 L 46.6584 6.10467 C 46.8041 6.10504, 46.9396 6.14442, 47.0647 6.22244, 47.2145 6.32476, 47.2892 6.48596, 47.2892 6.70531, 47.2892 6.90994, 47.2215 7.06305, 47.086 7.165, 46.9506 7.26731, 46.8082 7.3181, 46.6584 7.31773, 46.5049 7.3181, 46.3603 7.26731, 46.2248 7.165, 46.0894 7.06305, 46.0217 6.90994, 46.0217 6.70531, 46.0217 6.47786, 46.0794 6.27581, 46.1946 6.09915, 46.3098 5.92249, 46.4593 5.77527, 46.6433 5.6575, 46.8273 5.53972, 47.0334 5.4525, 47.2616 5.39545, 47.4901 5.33877, 47.7198 5.31007, 47.9502 5.3097, 48.2332 5.31007, 48.507 5.35129, 48.7717 5.43373, 49.0367 5.51617, 49.2781 5.64388, 49.4963 5.81612, 49.6944 5.97733, 49.8541 6.16503, 49.9755 6.37886, 50.097 6.59306, 50.1573 6.82529, 50.1573 7.0763 L 50.1573 9.7792 C 50.1573 9.9404, 50.1908 10.0821, 50.2575 10.2036, 50.3244 10.3254, 50.4242 10.3861, 50.5574 10.3857, 50.6829 10.3861, 50.7779 10.3254, 50.8426 10.2036, 50.9074 10.0821, 50.9394 9.9404, 50.9394 9.7792 L 50.9394 8.9489, 51.3763 8.9489, 51.3763 9.7792 Z M 49.1688 7.92427 C 48.8979 7.93641, 48.6119 7.97395, 48.3109 8.03652, 48.0098 8.09946, 47.7297 8.20913, 47.471 8.36592, 47.2487 8.49989, 47.0721 8.67949, 46.9407 8.9051, 46.8093 9.13108, 46.7434 9.36552, 46.7434 9.60843, 46.7434 9.74608, 46.7699 9.87195, 46.8222 9.98567, 46.8748 10.0998, 46.9484 10.1999, 47.0433 10.286, 47.1383 10.3725, 47.2487 10.4402, 47.3738 10.4892, 47.4993 10.5385, 47.6329 10.5628, 47.7743 10.5624, 47.9723 10.5628, 48.1545 10.5274, 48.3201 10.4568, 48.4857 10.3861, 48.6322 10.286, 48.7595 10.1564, 48.8869 10.0269, 48.987 9.87599, 49.0598 9.70302, 49.1327 9.5304, 49.1688 9.34785, 49.1688 9.155 Z" stroke="none" fill="#000000" />
			<path d="M 58.0139 10.8215 C 57.5005 10.7943, 57.0113 10.7803, 56.5461 10.7803, 56.0736 10.7803, 55.5903 10.7943, 55.0972 10.8215 L 55.0972 10.3268 C 55.279 10.3272, 55.4457 10.3243, 55.5973 10.3184, 55.749 10.3125, 55.8634 10.2919, 55.94 10.2562, 55.9845 10.233, 56.014 10.1929, 56.0279 10.1358, 56.0419 10.0792, 56.0489 10.017, 56.0489 9.94997 L 56.0489 7.0763 C 56.0489 6.8805, 56.039 6.6939, 56.0187 6.51724, 55.9989 6.34058, 55.9422 6.17975, 55.8491 6.034, 55.7924 5.94015, 55.7085 5.8717, 55.5973 5.82827, 55.4862 5.78521, 55.368 5.76349, 55.2425 5.76313, 55.0121 5.76349, 54.7972 5.81171, 54.597 5.90777, 54.3968 6.00419, 54.226 6.13374, 54.0843 6.29642, 53.943 6.45946, 53.8296 6.65084, 53.7446 6.87056, 53.66 7.09065, 53.6173 7.31994, 53.6173 7.55917 L 53.6173 9.94997 C 53.6173 10.017, 53.6254 10.0792, 53.6416 10.1358, 53.6578 10.1929, 53.6901 10.233, 53.7387 10.2562, 53.8156 10.2919, 53.9308 10.3125, 54.0843 10.3184, 54.2382 10.3243, 54.4038 10.3272, 54.5815 10.3268 L 54.5815 10.8156 C 54.3754 10.8079, 54.1855 10.802, 54.0118 10.7979, 53.8381 10.7943, 53.6681 10.7884, 53.5021 10.7803 L 53.12 10.7803 C 52.6471 10.7803, 52.1639 10.7943, 51.6707 10.8215 L 51.6707 10.3268 C 51.8529 10.3272, 52.0196 10.3243, 52.1712 10.3184, 52.3229 10.3125, 52.4373 10.2919, 52.5139 10.2562, 52.5625 10.233, 52.5945 10.1929, 52.6107 10.1358, 52.6269 10.0792, 52.635 10.017, 52.635 9.94997 L 52.635 6.60521 C 52.635 6.49553, 52.6302 6.39579, 52.6199 6.30525, 52.6099 6.21508, 52.5706 6.14221, 52.5017 6.087, 52.4333 6.04026, 52.3221 6.01303, 52.1683 6.00493, 52.0144 5.9972, 51.8488 5.99315, 51.6707 5.99278 L 51.6707 5.50402, 52.7137 5.42747, 53.5507 5.3627, 53.5507 6.37555 C 53.6276 6.19521, 53.8248 5.98248, 54.1421 5.73699, 54.4593 5.49188, 54.8344 5.36895, 55.2668 5.36858, 55.4935 5.36895, 55.7269 5.39545, 55.9672 5.44845, 56.2079 5.50145, 56.4192 5.61628, 56.601 5.79294, 56.7828 5.9696, 56.902 6.17276, 56.9587 6.40241, 57.0154 6.63207, 57.0437 6.85695, 57.0437 7.0763 L 57.0437 9.94997 C 57.0437 10.017, 57.0518 10.0792, 57.068 10.1358, 57.0842 10.1929, 57.1162 10.233, 57.1648 10.2562, 57.2417 10.2919, 57.3569 10.3125, 57.5104 10.3184, 57.6643 10.3243, 57.8321 10.3272, 58.0139 10.3268 L 58.0139 10.8215 Z" stroke="none" fill="#000000" />
			<path d="M 62.7701 10.9569 L 62.7701 10.2562 C 62.6405 10.4174, 62.4333 10.5738, 62.1484 10.7247, 61.8636 10.8756, 61.5452 10.951, 61.1934 10.951, 60.8216 10.951, 60.4698 10.8785, 60.1382 10.7335, 59.807 10.5885, 59.5199 10.3879, 59.277 10.1325, 59.0142 9.85796, 58.8151 9.55396, 58.6796 9.22014, 58.5442 8.8867, 58.4765 8.53522, 58.4765 8.1657, 58.4765 7.79693, 58.5475 7.44176, 58.6888 7.10022, 58.8305 6.75868, 59.0366 6.45652, 59.3075 6.19337, 59.5784 5.93058, 59.8876 5.72743, 60.235 5.58389, 60.5828 5.44072, 60.9468 5.36895, 61.3266 5.36858, 61.6542 5.36895, 61.9526 5.43888, 62.2213 5.578, 62.49 5.71749, 62.681 5.85955, 62.7943 6.00456 L 62.7943 3.55487 C 62.7943 3.45329, 62.7896 3.35429, 62.7793 3.25786, 62.769 3.1618, 62.7296 3.0882, 62.6608 3.03667, 62.5923 2.98993, 62.483 2.96269, 62.3336 2.9546, 62.1841 2.94687, 62.0204 2.94282, 61.8422 2.94245 L 61.8422 2.46547, 63.7524 2.32414, 63.7524 9.72031 C 63.7524 9.82263, 63.7575 9.9209, 63.7675 10.0151, 63.7778 10.1093, 63.8182 10.18, 63.8889 10.2271, 63.9596 10.2742, 64.07 10.3029, 64.2194 10.3125, 64.3688 10.3224, 64.5348 10.3272, 64.7166 10.3268 L 64.7166 10.8097 Z M 62.7701 6.66998 C 62.6368 6.4072, 62.4466 6.19042, 62.2 6.01965, 61.9534 5.84888, 61.6703 5.76349, 61.3509 5.76313, 61.0962 5.76349, 60.8577 5.82348, 60.6354 5.9431, 60.4131 6.06308, 60.2214 6.2287, 60.0594 6.44032, 59.8817 6.68029, 59.7676 6.94822, 59.7168 7.24449, 59.6664 7.54114, 59.641 7.84808, 59.641 8.1657, 59.641 8.48406, 59.6634 8.78843, 59.7076 9.07882, 59.7521 9.36957, 59.8574 9.64229, 60.023 9.89697, 60.1606 10.0976, 60.3355 10.2588, 60.5475 10.3802, 60.7598 10.502, 60.9832 10.5628, 61.2177 10.5624, 61.5695 10.5628, 61.8805 10.4656, 62.1514 10.2713, 62.4223 10.0769, 62.6287 9.82852, 62.7701 9.52599 Z" stroke="none" fill="#000000" />
			<path d="M 76.9854 8.54847 C 76.9854 8.86277, 76.9096 9.15831, 76.7579 9.43508, 76.6063 9.71185, 76.4054 9.95034, 76.1544 10.1502, 75.8754 10.3784, 75.5662 10.5462, 75.2265 10.654, 74.8872 10.7619, 74.5394 10.8156, 74.1835 10.8156 L 69.2293 10.8156, 69.2293 10.3268 C 69.4516 10.3272, 69.6661 10.3243, 69.8723 10.3184, 70.0784 10.3125, 70.234 10.2919, 70.3389 10.2562, 70.3956 10.237, 70.4383 10.1988, 70.4666 10.1417, 70.495 10.085, 70.509 10.021, 70.509 9.94997 L 70.509 3.31344 C 70.509 3.24314, 70.495 3.17947, 70.4666 3.12242, 70.4383 3.06575, 70.3956 3.0271, 70.3389 3.00723, 70.234 2.97226, 70.0784 2.95276, 69.8723 2.94871, 69.6661 2.94503, 69.4516 2.94282, 69.2293 2.94245 L 69.2293 2.45958, 73.832 2.45958 C 74.1839 2.45995, 74.5313 2.50706, 74.875 2.60128, 75.2188 2.69549, 75.5298 2.85044, 75.8088 3.06611, 76.0554 3.25492, 76.2556 3.47574, 76.409 3.72896, 76.5629 3.98217, 76.6394 4.25783, 76.6394 4.55595, 76.6394 4.85075, 76.5618 5.12089, 76.4061 5.36601, 76.2508 5.61149, 76.0517 5.82054, 75.8088 5.99278, 75.4289 6.24452, 75.1459 6.38953, 74.9597 6.42855, 74.9722 6.42891, 75.1157 6.48007, 75.3907 6.58202, 75.6656 6.68433, 75.9203 6.82529, 76.1544 7.00564, 76.4009 7.19444, 76.6012 7.42115, 76.755 7.68614, 76.9088 7.95114, 76.9854 8.23858, 76.9854 8.54847 Z M 75.3115 4.55595 C 75.3115 4.1246, 75.164 3.74552, 74.8688 3.41943, 74.7315 3.27074, 74.574 3.15408, 74.3959 3.06943, 74.2181 2.98514, 74.03 2.94282, 73.832 2.94245 L 72.2432 2.94245 C 72.1504 2.94282, 72.0544 2.94503, 71.9554 2.94871, 71.8564 2.95276, 71.7864 2.97042, 71.746 3.00134, 71.7018 3.03299, 71.6764 3.07826, 71.6701 3.13715, 71.6642 3.19603, 71.6609 3.25492, 71.6609 3.31344 L 71.6609 6.28133, 73.4864 6.28133 C 73.7249 6.2817, 73.9564 6.23569, 74.1809 6.14331, 74.4054 6.0513, 74.6023 5.92654, 74.772 5.76901, 75.1319 5.43557, 75.3115 5.03146, 75.3115 4.55595 Z M 75.6207 8.54847 C 75.6207 8.30151, 75.5806 8.06412, 75.4996 7.83631, 75.4186 7.60886, 75.2994 7.40054, 75.1419 7.21174, 75.0005 7.04318, 74.8316 6.90994, 74.6355 6.81168, 74.4397 6.71378, 74.2302 6.66446, 74.0079 6.66409 L 71.6609 6.66409, 71.6609 9.94997 C 71.6609 10.017, 71.6642 10.078, 71.6701 10.1329, 71.6764 10.1881, 71.7018 10.2312, 71.746 10.2621, 71.7864 10.2937, 71.8575 10.3125, 71.9583 10.3184, 72.0592 10.3243, 72.1541 10.3272, 72.2432 10.3268 L 73.832 10.3268 C 74.0624 10.3272, 74.288 10.2823, 74.5081 10.1918, 74.7286 10.1016, 74.9236 9.97389, 75.0933 9.80864, 75.2593 9.6364, 75.3888 9.44207, 75.4816 9.22603, 75.5743 9.01036, 75.6207 8.78438, 75.6207 8.54847 Z" stroke="none" fill="#000000" />
			<rect />
		</svg>
	</g>
	<path d="M 0 0 L 35 0, 35 0, 70.0001 0" fill="none" stroke="#000000" stroke-width="1.39999998" stroke-linecap="round" stroke-linejoin="round" marker-end="url(#CustomMarker-06)" transform="matrix(0.714286 0 0 0.714286 274.078 56.2899)" />
	<rect x="-69.0806122" y="-42.5112457" width="138.161224" height="85.0224915" stroke="none" fill="#5050BE" fill-opacity="0.596078396" transform="matrix(0.714286 0 -0 0.714286 373.422 56.2898)" />
	<path d="M -69.0806 -42.5112 L 69.0806 -42.5112, 69.0806 42.5112, -69.0806 42.5112 Z" fill="none" stroke="#000000" stroke-width="1.39999998" stroke-linecap="round" stroke-linejoin="round" transform="matrix(0.714286 0 -0 0.714286 373.422 56.2898)" />
	<path d="M 0 0 L -35 0, -35 0, -69.9999 0" fill="none" stroke="#000000" stroke-width="1.39999998" stroke-linecap="round" stroke-linejoin="round" marker-end="url(#CustomMarker-07)" transform="matrix(0.714286 0 0 0.714286 175.391 237.751)" />
	<rect x="-69.0806808" y="-42.5111389" width="138.161362" height="85.0222778" stroke="none" fill="#BF4BAF" fill-opacity="0.596078396" transform="matrix(0.714286 0 -0 0.714286 76.0482 237.751)" />
	<path d="M -69.0807 -42.5111 L 69.0807 -42.5111, 69.0807 42.5111, -69.0807 42.5111 Z" fill="none" stroke="#000000" stroke-width="1.39999998" stroke-linecap="round" stroke-linejoin="round" transform="matrix(0.714286 0 -0 0.714286 76.0482 237.751)" />
	<g transform="matrix(1 0 -0 1 51.815 230.546)">
		<svg width="149.985931" height="29.9999962">
			<defs />
			<path d="M 6.23291 8.1657 C 6.23291 8.53522, 6.16041 8.89038, 6.01466 9.23192, 5.86892 9.57346, 5.66281 9.87379, 5.39561 10.1325, 5.13725 10.396, 4.83288 10.5981, 4.48324 10.7394, 4.1336 10.8807, 3.7685 10.951, 3.38795 10.951, 3.02837 10.951, 2.71001 10.8679, 2.43288 10.7011, 2.15611 10.5344, 1.94264 10.3408, 1.79285 10.1207 L 1.37439 10.8156, 0.968069 10.8156, 0.968069 3.55487 C 0.968069 3.45329, 0.963284 3.35429, 0.952979 3.25786, 0.943042 3.1618, 0.901453 3.0882, 0.828581 3.03667, 0.760125 2.98993, 0.649713 2.96269, 0.498079 2.9546, 0.346446 2.94687, 0.179723 2.94282, -0.00245774 2.94245 L -0.00245774 2.46547, 1.90805 2.32414, 1.90805 6.05756 C 2.04165 5.89709, 2.25585 5.74215, 2.55102 5.59272, 2.84619 5.44367, 3.1719 5.36895, 3.5278 5.36858, 3.89989 5.36895, 4.25174 5.44072, 4.58298 5.58389, 4.91458 5.72743, 5.20166 5.93022, 5.4442 6.193, 5.70698 6.4602, 5.90425 6.76383, 6.03564 7.10317, 6.1674 7.44287, 6.23291 7.79693, 6.23291 8.1657 Z M 5.0802 8.1657 C 5.0802 7.84808, 5.05517 7.54114, 5.00438 7.24449, 4.95396 6.94822, 4.84981 6.68029, 4.69229 6.44032, 4.54654 6.23643, 4.37062 6.07265, 4.16451 5.94899, 3.95841 5.82532, 3.73795 5.76349, 3.50351 5.76313, 3.15976 5.76349, 2.8495 5.85109, 2.57236 6.02554, 2.2956 6.20036, 2.08618 6.42707, 1.94448 6.70531 L 1.94448 9.5731 C 2.07808 9.86385, 2.26615 10.1016, 2.50869 10.286, 2.7516 10.4708, 3.03242 10.5628, 3.35188 10.5624, 3.60656 10.5628, 3.84726 10.5009, 4.07361 10.3773, 4.30032 10.2536, 4.49023 10.0917, 4.6437 9.89108, 4.82993 9.65186, 4.94918 9.38429, 5.00144 9.08765, 5.05407 8.79138, 5.0802 8.48406, 5.0802 8.1657 Z" stroke="none" fill="#000000" />
			<path d="M 9.7316 10.8215 C 9.23033 10.7943, 8.74746 10.7803, 8.28225 10.7803, 7.82551 10.7803, 7.34632 10.7943, 6.84505 10.8215 L 6.84505 10.3268 C 7.02723 10.3272, 7.19395 10.3243, 7.34559 10.3184, 7.49722 10.3125, 7.61168 10.2919, 7.68824 10.2562, 7.73682 10.233, 7.76884 10.1929, 7.78503 10.1358, 7.80122 10.0792, 7.80932 10.017, 7.80932 9.94997 L 7.80932 3.55487 C 7.80932 3.45329, 7.80454 3.35429, 7.79423 3.25786, 7.78429 3.1618, 7.74491 3.0882, 7.67609 3.03667, 7.60763 2.98993, 7.49649 2.96269, 7.34264 2.9546, 7.1888 2.94687, 7.02318 2.94282, 6.84505 2.94245 L 6.84505 2.46547, 8.76145 2.32414, 8.76145 9.94997 C 8.76145 10.0133, 8.77065 10.074, 8.78868 10.1329, 8.80708 10.1918, 8.84021 10.233, 8.88879 10.2562, 8.96571 10.2919, 9.0798 10.3125, 9.23143 10.3184, 9.38307 10.3243, 9.54979 10.3272, 9.7316 10.3268 L 9.7316 10.8215 Z" stroke="none" fill="#000000" />
			<path d="M 16.0335 9.7792 C 16.0335 9.93267, 16.0052 10.074, 15.9485 10.2036, 15.8918 10.3331, 15.8153 10.4501, 15.7181 10.5539, 15.6213 10.6581, 15.5061 10.7394, 15.3725 10.7979, 15.2393 10.8568, 15.0958 10.8863, 14.9419 10.8863, 14.6549 10.8863, 14.4197 10.7825, 14.2357 10.5745, 14.0516 10.3666, 13.9556 10.2017, 13.9475 10.0795, 13.879 10.2407, 13.6991 10.4266, 13.4079 10.6364, 13.1168 10.8462, 12.7834 10.951, 12.4072 10.951, 12.1647 10.951, 11.921 10.9257, 11.6767 10.8745, 11.4323 10.8237, 11.2078 10.7475, 11.0035 10.6452, 10.7992 10.5433, 10.6344 10.4067, 10.5092 10.2359, 10.3841 10.0652, 10.3212 9.85612, 10.3212 9.60843, 10.3212 9.25952, 10.4275 8.95331, 10.6395 8.69016, 10.8519 8.42738, 11.1117 8.21723, 11.4187 8.05971, 11.8069 7.87164, 12.2081 7.7443, 12.6225 7.67731, 13.0369 7.6107, 13.4381 7.56727, 13.826 7.54739 L 13.826 7.0763 C 13.826 6.90001, 13.7958 6.72445, 13.7351 6.54963, 13.6748 6.37518, 13.5839 6.22281, 13.4624 6.09289, 13.228 5.82238, 12.9431 5.68878, 12.6074 5.69246, 12.3325 5.69283, 12.0789 5.73699, 11.8463 5.82532, 11.6137 5.91365, 11.4573 6.00677, 11.3763 6.10467 L 11.3156 6.10467 C 11.4614 6.10504, 11.5968 6.14442, 11.7219 6.22244, 11.8717 6.32476, 11.9464 6.48596, 11.9464 6.70531, 11.9464 6.90994, 11.8787 7.06305, 11.7433 7.165, 11.6078 7.26731, 11.4654 7.3181, 11.3156 7.31773, 11.1621 7.3181, 11.0175 7.26731, 10.8821 7.165, 10.7466 7.06305, 10.6789 6.90994, 10.6789 6.70531, 10.6789 6.47786, 10.7367 6.27581, 10.8519 6.09915, 10.9671 5.92249, 11.1165 5.77527, 11.3005 5.6575, 11.4845 5.53972, 11.6906 5.4525, 11.9188 5.39545, 12.1474 5.33877, 12.377 5.31007, 12.6074 5.3097, 12.8905 5.31007, 13.1643 5.35129, 13.4289 5.43373, 13.6939 5.51617, 13.9353 5.64388, 14.1536 5.81612, 14.3516 5.97733, 14.5113 6.16503, 14.6328 6.37886, 14.7542 6.59306, 14.8146 6.82529, 14.8146 7.0763 L 14.8146 9.7792 C 14.8146 9.9404, 14.8481 10.0821, 14.9147 10.2036, 14.9817 10.3254, 15.0814 10.3861, 15.2146 10.3857, 15.3402 10.3861, 15.4351 10.3254, 15.4999 10.2036, 15.5647 10.0821, 15.5967 9.9404, 15.5967 9.7792 L 15.5967 8.9489, 16.0335 8.9489, 16.0335 9.7792 Z M 13.826 7.92427 C 13.5551 7.93641, 13.2692 7.97395, 12.9681 8.03652, 12.6671 8.09946, 12.387 8.20913, 12.1282 8.36592, 11.906 8.49989, 11.7293 8.67949, 11.5979 8.9051, 11.4665 9.13108, 11.4006 9.36552, 11.4006 9.60843, 11.4006 9.74608, 11.4271 9.87195, 11.4794 9.98567, 11.532 10.0998, 11.6056 10.1999, 11.7006 10.286, 11.7955 10.3725, 11.906 10.4402, 12.0311 10.4892, 12.1566 10.5385, 12.2902 10.5628, 12.4315 10.5624, 12.6295 10.5628, 12.8117 10.5274, 12.9773 10.4568, 13.1429 10.3861, 13.2894 10.286, 13.4168 10.1564, 13.5441 10.0269, 13.6442 9.87599, 13.7171 9.70302, 13.79 9.5304, 13.826 9.34785, 13.826 9.155 Z" stroke="none" fill="#000000" />
			<path d="M 22.5088 8.1657 C 22.5088 8.53522, 22.4363 8.89038, 22.2906 9.23192, 22.1448 9.57346, 21.9387 9.87379, 21.6715 10.1325, 21.4132 10.396, 21.1088 10.5981, 20.7592 10.7394, 20.4095 10.8807, 20.0444 10.951, 19.6639 10.951, 19.3043 10.951, 18.9859 10.8679, 18.7088 10.7011, 18.432 10.5344, 18.2186 10.3408, 18.0688 10.1207 L 17.6503 10.8156, 17.244 10.8156, 17.244 3.55487 C 17.244 3.45329, 17.2392 3.35429, 17.2289 3.25786, 17.219 3.1618, 17.1774 3.0882, 17.1045 3.03667, 17.036 2.98993, 16.9256 2.96269, 16.774 2.9546, 16.6224 2.94687, 16.4556 2.94282, 16.2735 2.94245 L 16.2735 2.46547, 18.184 2.32414, 18.184 6.05756 C 18.3176 5.89709, 18.5318 5.74215, 18.8269 5.59272, 19.1221 5.44367, 19.4478 5.36895, 19.8037 5.36858, 20.1758 5.36895, 20.5277 5.44072, 20.8589 5.58389, 21.1905 5.72743, 21.4776 5.93022, 21.7201 6.193, 21.9829 6.4602, 22.1802 6.76383, 22.3116 7.10317, 22.4433 7.44287, 22.5088 7.79693, 22.5088 8.1657 Z M 21.3561 8.1657 C 21.3561 7.84808, 21.3311 7.54114, 21.2803 7.24449, 21.2299 6.94822, 21.1257 6.68029, 20.9682 6.44032, 20.8225 6.23643, 20.6465 6.07265, 20.4404 5.94899, 20.2343 5.82532, 20.0139 5.76349, 19.7794 5.76313, 19.4357 5.76349, 19.1254 5.85109, 18.8483 6.02554, 18.5715 6.20036, 18.3621 6.42707, 18.2204 6.70531 L 18.2204 9.5731 C 18.354 9.86385, 18.5421 10.1016, 18.7846 10.286, 19.0275 10.4708, 19.3083 10.5628, 19.6278 10.5624, 19.8825 10.5628, 20.1232 10.5009, 20.3495 10.3773, 20.5762 10.2536, 20.7662 10.0917, 20.9196 9.89108, 21.1059 9.65186, 21.2251 9.38429, 21.2774 9.08765, 21.33 8.79138, 21.3561 8.48406, 21.3561 8.1657 Z" stroke="none" fill="#000000" />
			<path d="M 26.0081 10.8215 C 25.5069 10.7943, 25.024 10.7803, 24.5588 10.7803, 24.102 10.7803, 23.6228 10.7943, 23.1216 10.8215 L 23.1216 10.3268 C 23.3038 10.3272, 23.4705 10.3243, 23.6221 10.3184, 23.7737 10.3125, 23.8882 10.2919, 23.9648 10.2562, 24.0133 10.233, 24.0454 10.1929, 24.0616 10.1358, 24.0777 10.0792, 24.0858 10.017, 24.0858 9.94997 L 24.0858 3.55487 C 24.0858 3.45329, 24.0811 3.35429, 24.0708 3.25786, 24.0608 3.1618, 24.0214 3.0882, 23.9526 3.03667, 23.8842 2.98993, 23.773 2.96269, 23.6192 2.9546, 23.4653 2.94687, 23.2997 2.94282, 23.1216 2.94245 L 23.1216 2.46547, 25.038 2.32414, 25.038 9.94997 C 25.038 10.0133, 25.0472 10.074, 25.0652 10.1329, 25.0836 10.1918, 25.1167 10.233, 25.1653 10.2562, 25.2422 10.2919, 25.3563 10.3125, 25.508 10.3184, 25.6596 10.3243, 25.8263 10.3272, 26.0081 10.3268 L 26.0081 10.8215 Z" stroke="none" fill="#000000" />
			<path d="M 32.3101 9.7792 C 32.3101 9.93267, 32.2817 10.074, 32.225 10.2036, 32.1684 10.3331, 32.0918 10.4501, 31.9947 10.5539, 31.8979 10.6581, 31.7827 10.7394, 31.6491 10.7979, 31.5158 10.8568, 31.3723 10.8863, 31.2185 10.8863, 30.9314 10.8863, 30.6962 10.7825, 30.5122 10.5745, 30.3282 10.3666, 30.2321 10.2017, 30.224 10.0795, 30.1555 10.2407, 29.9756 10.4266, 29.6845 10.6364, 29.3933 10.8462, 29.0599 10.951, 28.6837 10.951, 28.4412 10.951, 28.1976 10.9257, 27.9532 10.8745, 27.7088 10.8237, 27.4843 10.7475, 27.28 10.6452, 27.0758 10.5433, 26.9109 10.4067, 26.7858 10.2359, 26.6606 10.0652, 26.5977 9.85612, 26.5977 9.60843, 26.5977 9.25952, 26.7041 8.95331, 26.916 8.69016, 27.1284 8.42738, 27.3882 8.21723, 27.6952 8.05971, 28.0835 7.87164, 28.4846 7.7443, 28.8991 7.67731, 29.3135 7.6107, 29.7146 7.56727, 30.1026 7.54739 L 30.1026 7.0763 C 30.1026 6.90001, 30.0724 6.72445, 30.0116 6.54963, 29.9513 6.37518, 29.8604 6.22281, 29.7389 6.09289, 29.5045 5.82238, 29.2196 5.68878, 28.884 5.69246, 28.609 5.69283, 28.3555 5.73699, 28.1229 5.82532, 27.8902 5.91365, 27.7338 6.00677, 27.6529 6.10467 L 27.5921 6.10467 C 27.7379 6.10504, 27.8733 6.14442, 27.9985 6.22244, 28.1482 6.32476, 28.223 6.48596, 28.223 6.70531, 28.223 6.90994, 28.1552 7.06305, 28.0198 7.165, 27.8844 7.26731, 27.7419 7.3181, 27.5921 7.31773, 27.4387 7.3181, 27.294 7.26731, 27.1586 7.165, 27.0231 7.06305, 26.9554 6.90994, 26.9554 6.70531, 26.9554 6.47786, 27.0132 6.27581, 27.1284 6.09915, 27.2436 5.92249, 27.393 5.77527, 27.577 5.6575, 27.7611 5.53972, 27.9672 5.4525, 28.1954 5.39545, 28.4239 5.33877, 28.6536 5.31007, 28.884 5.3097, 29.167 5.31007, 29.4408 5.35129, 29.7054 5.43373, 29.9704 5.51617, 30.2119 5.64388, 30.4301 5.81612, 30.6281 5.97733, 30.7878 6.16503, 30.9093 6.37886, 31.0308 6.59306, 31.0911 6.82529, 31.0911 7.0763 L 31.0911 9.7792 C 31.0911 9.9404, 31.1246 10.0821, 31.1912 10.2036, 31.2582 10.3254, 31.3579 10.3861, 31.4912 10.3857, 31.6167 10.3861, 31.7116 10.3254, 31.7764 10.2036, 31.8412 10.0821, 31.8732 9.9404, 31.8732 9.7792 L 31.8732 8.9489, 32.3101 8.9489, 32.3101 9.7792 Z M 30.1026 7.92427 C 29.8317 7.93641, 29.5457 7.97395, 29.2446 8.03652, 28.9436 8.09946, 28.6635 8.20913, 28.4048 8.36592, 28.1825 8.49989, 28.0058 8.67949, 27.8744 8.9051, 27.743 9.13108, 27.6772 9.36552, 27.6772 9.60843, 27.6772 9.74608, 27.7037 9.87195, 27.7559 9.98567, 27.8085 10.0998, 27.8822 10.1999, 27.9771 10.286, 28.0721 10.3725, 28.1825 10.4402, 28.3076 10.4892, 28.4331 10.5385, 28.5667 10.5628, 28.708 10.5624, 28.906 10.5628, 29.0882 10.5274, 29.2538 10.4568, 29.4195 10.3861, 29.5659 10.286, 29.6933 10.1564, 29.8206 10.0269, 29.9207 9.87599, 29.9936 9.70302, 30.0665 9.5304, 30.1026 9.34785, 30.1026 9.155 Z" stroke="none" fill="#000000" />
			<path d="M 38.7854 8.1657 C 38.7854 8.53522, 38.7128 8.89038, 38.5671 9.23192, 38.4214 9.57346, 38.2153 9.87379, 37.9481 10.1325, 37.6897 10.396, 37.3853 10.5981, 37.0357 10.7394, 36.686 10.8807, 36.3209 10.951, 35.9404 10.951, 35.5808 10.951, 35.2625 10.8679, 34.9853 10.7011, 34.7085 10.5344, 34.4951 10.3408, 34.3453 10.1207 L 33.9268 10.8156, 33.5205 10.8156, 33.5205 3.55487 C 33.5205 3.45329, 33.5157 3.35429, 33.5054 3.25786, 33.4955 3.1618, 33.4539 3.0882, 33.381 3.03667, 33.3126 2.98993, 33.2022 2.96269, 33.0505 2.9546, 32.8989 2.94687, 32.7322 2.94282, 32.55 2.94245 L 32.55 2.46547, 34.4605 2.32414, 34.4605 6.05756 C 34.5941 5.89709, 34.8083 5.74215, 35.1035 5.59272, 35.3986 5.44367, 35.7243 5.36895, 36.0802 5.36858, 36.4523 5.36895, 36.8042 5.44072, 37.1354 5.58389, 37.467 5.72743, 37.7541 5.93022, 37.9966 6.193, 38.2594 6.4602, 38.4567 6.76383, 38.5881 7.10317, 38.7198 7.44287, 38.7854 7.79693, 38.7854 8.1657 Z M 37.6326 8.1657 C 37.6326 7.84808, 37.6076 7.54114, 37.5568 7.24449, 37.5064 6.94822, 37.4022 6.68029, 37.2447 6.44032, 37.099 6.23643, 36.9231 6.07265, 36.717 5.94899, 36.5109 5.82532, 36.2904 5.76349, 36.056 5.76313, 35.7122 5.76349, 35.4019 5.85109, 35.1248 6.02554, 34.848 6.20036, 34.6386 6.42707, 34.4969 6.70531 L 34.4969 9.5731 C 34.6305 9.86385, 34.8186 10.1016, 35.0611 10.286, 35.304 10.4708, 35.5849 10.5628, 35.9043 10.5624, 36.159 10.5628, 36.3997 10.5009, 36.626 10.3773, 36.8528 10.2536, 37.0427 10.0917, 37.1961 9.89108, 37.3824 9.65186, 37.5016 9.38429, 37.5539 9.08765, 37.6065 8.79138, 37.6326 8.48406, 37.6326 8.1657 Z" stroke="none" fill="#000000" />
			<path d="M 42.2846 10.8215 C 41.7834 10.7943, 41.3005 10.7803, 40.8353 10.7803, 40.3786 10.7803, 39.8994 10.7943, 39.3981 10.8215 L 39.3981 10.3268 C 39.5803 10.3272, 39.747 10.3243, 39.8986 10.3184, 40.0503 10.3125, 40.1647 10.2919, 40.2413 10.2562, 40.2899 10.233, 40.3219 10.1929, 40.3381 10.1358, 40.3543 10.0792, 40.3624 10.017, 40.3624 9.94997 L 40.3624 3.55487 C 40.3624 3.45329, 40.3576 3.35429, 40.3473 3.25786, 40.3373 3.1618, 40.298 3.0882, 40.2291 3.03667, 40.1607 2.98993, 40.0495 2.96269, 39.8957 2.9546, 39.7418 2.94687, 39.5762 2.94282, 39.3981 2.94245 L 39.3981 2.46547, 41.3145 2.32414, 41.3145 9.94997 C 41.3145 10.0133, 41.3237 10.074, 41.3417 10.1329, 41.3601 10.1918, 41.3932 10.233, 41.4418 10.2562, 41.5188 10.2919, 41.6328 10.3125, 41.7845 10.3184, 41.9361 10.3243, 42.1028 10.3272, 42.2846 10.3268 L 42.2846 10.8215 Z" stroke="none" fill="#000000" />
			<path d="M 48.5892 9.7792 C 48.5892 9.93267, 48.5608 10.074, 48.5042 10.2036, 48.4475 10.3331, 48.3709 10.4501, 48.2738 10.5539, 48.177 10.6581, 48.0618 10.7394, 47.9282 10.7979, 47.7949 10.8568, 47.6514 10.8863, 47.4976 10.8863, 47.2105 10.8863, 46.9753 10.7825, 46.7913 10.5745, 46.6073 10.3666, 46.5112 10.2017, 46.5031 10.0795, 46.4347 10.2407, 46.2547 10.4266, 45.9636 10.6364, 45.6725 10.8462, 45.339 10.951, 44.9629 10.951, 44.7203 10.951, 44.4767 10.9257, 44.2323 10.8745, 43.9879 10.8237, 43.7634 10.7475, 43.5592 10.6452, 43.3549 10.5433, 43.19 10.4067, 43.0649 10.2359, 42.9397 10.0652, 42.8768 9.85612, 42.8768 9.60843, 42.8768 9.25952, 42.9832 8.95331, 43.1952 8.69016, 43.4075 8.42738, 43.6674 8.21723, 43.9743 8.05971, 44.3626 7.87164, 44.7638 7.7443, 45.1782 7.67731, 45.5926 7.6107, 45.9938 7.56727, 46.3817 7.54739 L 46.3817 7.0763 C 46.3817 6.90001, 46.3515 6.72445, 46.2908 6.54963, 46.2304 6.37518, 46.1395 6.22281, 46.018 6.09289, 45.7836 5.82238, 45.4987 5.68878, 45.1631 5.69246, 44.8882 5.69283, 44.6346 5.73699, 44.402 5.82532, 44.1694 5.91365, 44.0129 6.00677, 43.932 6.10467 L 43.8713 6.10467 C 44.017 6.10504, 44.1524 6.14442, 44.2776 6.22244, 44.4274 6.32476, 44.5021 6.48596, 44.5021 6.70531, 44.5021 6.90994, 44.4344 7.06305, 44.2989 7.165, 44.1635 7.26731, 44.021 7.3181, 43.8713 7.31773, 43.7178 7.3181, 43.5731 7.26731, 43.4377 7.165, 43.3023 7.06305, 43.2345 6.90994, 43.2345 6.70531, 43.2345 6.47786, 43.2923 6.27581, 43.4075 6.09915, 43.5227 5.92249, 43.6721 5.77527, 43.8562 5.6575, 44.0402 5.53972, 44.2463 5.4525, 44.4745 5.39545, 44.703 5.33877, 44.9327 5.31007, 45.1631 5.3097, 45.4461 5.31007, 45.7199 5.35129, 45.9846 5.43373, 46.2495 5.51617, 46.491 5.64388, 46.7092 5.81612, 46.9072 5.97733, 47.067 6.16503, 47.1884 6.37886, 47.3099 6.59306, 47.3702 6.82529, 47.3702 7.0763 L 47.3702 9.7792 C 47.3702 9.9404, 47.4037 10.0821, 47.4703 10.2036, 47.5373 10.3254, 47.6371 10.3861, 47.7703 10.3857, 47.8958 10.3861, 47.9907 10.3254, 48.0555 10.2036, 48.1203 10.0821, 48.1523 9.9404, 48.1523 9.7792 L 48.1523 8.9489, 48.5892 8.9489, 48.5892 9.7792 Z M 46.3817 7.92427 C 46.1108 7.93641, 45.8248 7.97395, 45.5238 8.03652, 45.2227 8.09946, 44.9426 8.20913, 44.6839 8.36592, 44.4616 8.49989, 44.2849 8.67949, 44.1535 8.9051, 44.0221 9.13108, 43.9563 9.36552, 43.9563 9.60843, 43.9563 9.74608, 43.9828 9.87195, 44.035 9.98567, 44.0877 10.0998, 44.1613 10.1999, 44.2562 10.286, 44.3512 10.3725, 44.4616 10.4402, 44.5867 10.4892, 44.7122 10.5385, 44.8458 10.5628, 44.9872 10.5624, 45.1852 10.5628, 45.3673 10.5274, 45.533 10.4568, 45.6986 10.3861, 45.8451 10.286, 45.9724 10.1564, 46.0997 10.0269, 46.1999 9.87599, 46.2727 9.70302, 46.3456 9.5304, 46.3817 9.34785, 46.3817 9.155 Z" stroke="none" fill="#000000" />
			<rect />
		</svg>
	</g>
	<path d="M 0 0 L 6.10352e-005 -42.0002" fill="none" stroke="#000000" stroke-width="1.39999998" stroke-linecap="round" stroke-linejoin="round" marker-end="url(#CustomMarker-08)" transform="matrix(0.714286 0 0 0.714286 76.048 207.385)" />
	<path d="M 0 0 L 208.161 -42.0002" fill="none" stroke="#000000" stroke-width="1.39999998" stroke-linecap="round" stroke-linejoin="round" marker-end="url(#CustomMarker-09)" transform="matrix(0.714286 0 0 0.714286 76.048 207.385)" />
	<path d="M -69.0806 -42.5112 L -35.0717 -42.5112, 35.0716 -42.5112 C 53.8542 -42.5112, 69.0806 -27.2849, 69.0806 -8.50225, 69.0806 -8.50224, 69.0806 -8.50223, 69.0806 -8.50223 L 69.0806 -8.50224, 69.0806 42.5112, 35.0717 42.5112, -35.0717 42.5112 C -53.8543 42.5112, -69.0806 27.2849, -69.0806 8.50225 Z" stroke="none" fill="#FE5B8E" fill-opacity="0.596078396" transform="matrix(0.714286 0 -0 0.714286 373.422 237.751)" />
	<path d="M -69.0806 -42.5112 L -35.0717 -42.5112, 35.0716 -42.5112 C 53.8542 -42.5112, 69.0806 -27.2849, 69.0806 -8.50225, 69.0806 -8.50224, 69.0806 -8.50223, 69.0806 -8.50223 L 69.0806 -8.50224, 69.0806 42.5112, 35.0717 42.5112, -35.0717 42.5112 C -53.8543 42.5112, -69.0806 27.2849, -69.0806 8.50225 Z" fill="none" stroke="#000000" stroke-width="1.39999998" stroke-linecap="round" stroke-linejoin="round" transform="matrix(0.714286 0 -0 0.714286 373.422 237.751)" />
	<path d="M 0 0 L 70.0001 6.10352e-005" fill="none" stroke="#000000" stroke-width="1.39999998" stroke-linecap="round" stroke-linejoin="round" marker-end="url(#CustomMarker-10)" transform="matrix(0.714286 0 0 0.714286 274.078 237.751)" />
	<path d="M -294.5 -187.236 L 294.5 -187.236, 294.5 187.236, -294.5 187.236 Z" fill="none" stroke="#000000" stroke-width="1.39999998" stroke-linecap="round" stroke-linejoin="round" stroke-dasharray="4.907, 3.493" transform="matrix(0.714286 0 -0 0.714286 224.735 147.02)" />
</svg>
